<svg width="17" height="15" viewBox="0 0 17 15" fill="none" xmlns="http://www.w3.org/2000/svg">
<path d="M15.7917 6.46566H3.4375L7.21875 1.92399C7.39556 1.71127 7.48063 1.43702 7.45523 1.16157C7.42983 0.886129 7.29606 0.632054 7.08333 0.455243C6.87061 0.278432 6.59636 0.193368 6.32091 0.218763C6.04547 0.244159 5.79139 0.377934 5.61458 0.59066L0.40625 6.84066C0.370496 6.8899 0.339126 6.94219 0.3125 6.99691C0.3125 7.04899 0.3125 7.08024 0.239584 7.13233C0.192369 7.25176 0.167647 7.3789 0.166667 7.50733C0.167647 7.63575 0.192369 7.76289 0.239584 7.88233C0.239584 7.93441 0.239584 7.96566 0.3125 8.01774C0.339126 8.07246 0.370496 8.12475 0.40625 8.17399L5.61458 14.424C5.71252 14.5416 5.83517 14.6361 5.9738 14.701C6.11243 14.7658 6.26363 14.7992 6.41667 14.799C6.66005 14.7995 6.89593 14.7147 7.08333 14.5594C7.18881 14.472 7.276 14.3646 7.33991 14.2434C7.40382 14.1222 7.44319 13.9896 7.45577 13.8531C7.46835 13.7167 7.45389 13.5791 7.41321 13.4483C7.37254 13.3174 7.30646 13.1959 7.21875 13.0907L3.4375 8.54899H15.7917C16.0679 8.54899 16.3329 8.43925 16.5282 8.2439C16.7236 8.04855 16.8333 7.78359 16.8333 7.50733C16.8333 7.23106 16.7236 6.96611 16.5282 6.77076C16.3329 6.57541 16.0679 6.46566 15.7917 6.46566Z" fill="#105F82"/>
</svg>
