<svg width="34" height="34" viewBox="0 0 34 34" fill="none" xmlns="http://www.w3.org/2000/svg">
<rect width="34" height="34" rx="17" fill="#EBE7F4"/>
<rect x="0.5" y="0.5" width="33" height="33" rx="16.5" stroke="white" stroke-opacity="0.71"/>
<path fill-rule="evenodd" clip-rule="evenodd" d="M10.75 11.7917C10.75 10.4104 11.2987 9.08561 12.2755 8.10886C13.2522 7.13211 14.577 6.58337 15.9583 6.58337C17.3397 6.58337 18.6644 7.13211 19.6412 8.10886C20.6179 9.08561 21.1667 10.4104 21.1667 11.7917C21.1667 13.173 20.6179 14.4978 19.6412 15.4746C18.6644 16.4513 17.3397 17 15.9583 17C14.577 17 13.2522 16.4513 12.2755 15.4746C11.2987 14.4978 10.75 13.173 10.75 11.7917ZM15.9583 8.66671C15.548 8.66671 15.1416 8.74754 14.7625 8.90458C14.3833 9.06163 14.0388 9.29182 13.7486 9.582C13.4584 9.87218 13.2283 10.2167 13.0712 10.5958C12.9142 10.975 12.8333 11.3813 12.8333 11.7917C12.8333 12.2021 12.9142 12.6085 13.0712 12.9876C13.2283 13.3667 13.4584 13.7112 13.7486 14.0014C14.0388 14.2916 14.3833 14.5218 14.7625 14.6788C15.1416 14.8359 15.548 14.9167 15.9583 14.9167C16.7871 14.9167 17.582 14.5875 18.168 14.0014C18.7541 13.4154 19.0833 12.6205 19.0833 11.7917C19.0833 10.9629 18.7541 10.168 18.168 9.582C17.582 8.99595 16.7871 8.66671 15.9583 8.66671ZM9.09688 22.8344C8.76042 23.2615 8.66667 23.5844 8.66667 23.7709C8.66667 23.8938 8.70313 24.0125 8.88021 24.1709C9.08542 24.3542 9.45313 24.5563 10.0365 24.7365C11.2031 25.0969 12.9073 25.2792 14.9385 25.323C15.0753 25.3258 15.2102 25.3556 15.3355 25.4106C15.4608 25.4656 15.574 25.5448 15.6687 25.6435C15.7634 25.7423 15.8377 25.8587 15.8874 25.9862C15.9371 26.1137 15.9612 26.2497 15.9583 26.3865C15.9555 26.5233 15.9257 26.6582 15.8707 26.7835C15.8157 26.9087 15.7365 27.022 15.6378 27.1167C15.539 27.2114 15.4226 27.2857 15.2951 27.3354C15.1676 27.3851 15.0316 27.4092 14.8948 27.4063C12.8146 27.3615 10.874 27.1761 9.42188 26.7271C8.69688 26.5021 8.01146 26.1886 7.49271 25.725C6.94479 25.2355 6.58334 24.5771 6.58334 23.7709C6.58334 22.9511 6.95625 22.1844 7.4625 21.5427C7.97709 20.8917 8.68854 20.2927 9.52292 19.7823C11.1927 18.7657 13.4635 18.0417 15.9583 18.0417C16.4243 18.0417 16.8813 18.066 17.3292 18.1146C17.6039 18.1438 17.8558 18.2809 18.0295 18.4958C18.2032 18.7106 18.2844 18.9857 18.2552 19.2605C18.2261 19.5352 18.089 19.7871 17.8741 19.9608C17.6592 20.1345 17.3841 20.2156 17.1094 20.1865C16.7337 20.1455 16.35 20.125 15.9583 20.125C13.851 20.125 11.9552 20.7396 10.6083 21.5615C9.93438 21.9719 9.425 22.4177 9.09688 22.8344ZM26.5969 19.1188C26.355 18.8769 26.0679 18.685 25.7519 18.5541C25.4359 18.4232 25.0973 18.3558 24.7552 18.3558C24.4132 18.3558 24.0745 18.4232 23.7585 18.5541C23.4425 18.685 23.1554 18.8769 22.9135 19.1188L19.3531 22.6782C19.1141 22.9174 18.9591 23.2277 18.9115 23.5625L18.5677 25.9667C18.5445 26.1271 18.559 26.2907 18.6101 26.4445C18.6612 26.5982 18.7475 26.738 18.8621 26.8526C18.9766 26.9672 19.1164 27.0534 19.2702 27.1045C19.424 27.1556 19.5875 27.1701 19.7479 27.1469L22.1521 26.8032C22.4869 26.7555 22.7972 26.6005 23.0365 26.3615L26.5958 22.8011C27.084 22.3127 27.3583 21.6505 27.3583 20.9599C27.3583 20.2694 27.0851 19.6071 26.5969 19.1188ZM24.3865 20.5917C24.4847 20.4968 24.6163 20.4443 24.7528 20.4455C24.8894 20.4467 25.02 20.5015 25.1166 20.5981C25.2131 20.6946 25.2679 20.8252 25.2691 20.9618C25.2703 21.0984 25.2178 21.2299 25.1229 21.3282L21.6854 24.7657L20.826 24.8886L20.949 24.0292L24.3865 20.5917Z" fill="black" fill-opacity="0.58"/>
</svg>
