<svg width="34" height="34" viewBox="0 0 34 34" fill="none" xmlns="http://www.w3.org/2000/svg">
<rect width="34" height="34" rx="17" fill="#D3D3FF"/>
<rect x="0.5" y="0.5" width="33" height="33" rx="16.5" stroke="white" stroke-opacity="0.71"/>
<path d="M20.9063 9.96876C20.9063 9.76156 20.9886 9.56285 21.1351 9.41633C21.2816 9.26982 21.4803 9.18751 21.6875 9.18751H23.25V7.62501C23.25 7.41781 23.3323 7.2191 23.4788 7.07258C23.6253 6.92607 23.8241 6.84376 24.0313 6.84376C24.2385 6.84376 24.4372 6.92607 24.5837 7.07258C24.7302 7.2191 24.8125 7.41781 24.8125 7.62501V9.18751H26.375C26.5822 9.18751 26.7809 9.26982 26.9274 9.41633C27.0739 9.56285 27.1563 9.76156 27.1563 9.96876C27.1563 10.176 27.0739 10.3747 26.9274 10.5212C26.7809 10.6677 26.5822 10.75 26.375 10.75H24.8125V12.3125C24.8125 12.5197 24.7302 12.7184 24.5837 12.8649C24.4372 13.0115 24.2385 13.0938 24.0313 13.0938C23.8241 13.0938 23.6253 13.0115 23.4788 12.8649C23.3323 12.7184 23.25 12.5197 23.25 12.3125V10.75H21.6875C21.4803 10.75 21.2816 10.6677 21.1351 10.5212C20.9886 10.3747 20.9063 10.176 20.9063 9.96876ZM27.0156 15.3086C27.3725 17.4302 27.046 19.6104 26.083 21.5344C25.1201 23.4583 23.5707 25.0264 21.6584 26.0123C19.7462 26.9982 17.57 27.3509 15.4443 27.0195C13.3185 26.688 11.3531 25.6895 9.83179 24.1682C8.31048 22.6469 7.31201 20.6815 6.98055 18.5557C6.64908 16.43 7.00177 14.2539 7.98768 12.3416C8.9736 10.4294 10.5417 8.87991 12.4657 7.91698C14.3896 6.95405 16.5698 6.62747 18.6914 6.98439C18.8942 7.02025 19.0746 7.13474 19.1935 7.30295C19.3123 7.47116 19.3599 7.67949 19.3259 7.88261C19.2919 8.08573 19.1791 8.26722 19.012 8.3876C18.8449 8.50797 18.637 8.5575 18.4336 8.5254C17.2013 8.3181 15.9386 8.38182 14.7335 8.71213C13.5283 9.04243 12.4096 9.63138 11.4552 10.438C10.5008 11.2446 9.73362 12.2495 9.20707 13.3828C8.68052 14.516 8.40724 15.7504 8.40625 17C8.4044 19.1037 9.17759 21.1344 10.5781 22.7041C11.4494 21.4415 12.6746 20.4647 14.0996 19.8965C13.3342 19.2936 12.7756 18.4672 12.5016 17.5321C12.2277 16.5971 12.2519 15.5999 12.5709 14.6793C12.8899 13.7586 13.4879 12.9603 14.2817 12.3952C15.0755 11.8302 16.0256 11.5266 17 11.5266C17.9744 11.5266 18.9245 11.8302 19.7183 12.3952C20.5121 12.9603 21.1101 13.7586 21.4291 14.6793C21.7481 15.5999 21.7724 16.5971 21.4984 17.5321C21.2244 18.4672 20.6658 19.2936 19.9004 19.8965C21.3254 20.4647 22.5506 21.4415 23.4219 22.7041C24.8224 21.1344 25.5956 19.1037 25.5938 17C25.5937 16.5197 25.5539 16.0402 25.4746 15.5664C25.4566 15.4648 25.459 15.3606 25.4815 15.2599C25.504 15.1592 25.5463 15.0639 25.6058 14.9796C25.6654 14.8953 25.741 14.8237 25.8284 14.7688C25.9158 14.7139 26.0132 14.6769 26.115 14.6598C26.2168 14.6428 26.321 14.6461 26.4215 14.6696C26.522 14.693 26.6168 14.7361 26.7006 14.7965C26.7843 14.8568 26.8553 14.9331 26.9093 15.021C26.9634 15.1089 26.9995 15.2067 27.0156 15.3086ZM17 19.3438C17.6181 19.3438 18.2223 19.1605 18.7362 18.8171C19.2501 18.4737 19.6506 17.9857 19.8871 17.4146C20.1237 16.8436 20.1855 16.2153 20.065 15.6091C19.9444 15.0029 19.6468 14.4461 19.2097 14.0091C18.7727 13.572 18.2159 13.2744 17.6097 13.1538C17.0035 13.0332 16.3751 13.0951 15.8041 13.3316C15.2331 13.5682 14.745 13.9687 14.4017 14.4826C14.0583 14.9965 13.875 15.6007 13.875 16.2188C13.875 17.0476 14.2042 17.8424 14.7903 18.4285C15.3763 19.0145 16.1712 19.3438 17 19.3438ZM17 25.5938C18.9076 25.5957 20.761 24.9598 22.2656 23.7871C21.7005 22.9032 20.9219 22.1758 20.0016 21.6719C19.0814 21.1681 18.0491 20.904 17 20.904C15.9509 20.904 14.9186 21.1681 13.9984 21.6719C13.0781 22.1758 12.2995 22.9032 11.7344 23.7871C13.239 24.9598 15.0924 25.5957 17 25.5938Z" fill="white"/>
</svg>
