<svg width="227" height="227" viewBox="0 0 227 227" fill="none" xmlns="http://www.w3.org/2000/svg">
<g filter="url(#filter0_i_99_272)">
<circle cx="113.5" cy="113.5" r="113.5" fill="#E2E6EA"/>
</g>
<circle cx="113.5" cy="113.5" r="113" stroke="white"/>
<g filter="url(#filter1_d_99_272)">
<circle cx="112.5" cy="112.5" r="89.5" fill="url(#paint0_linear_99_272)"/>
</g>
<circle cx="113.5" cy="113.5" r="78.5" fill="url(#paint1_linear_99_272)"/>
<path fill-rule="evenodd" clip-rule="evenodd" d="M110.673 130.148C110.422 130.052 110.164 129.972 109.923 129.855C108.735 129.28 108.06 128.343 107.999 127.011C107.968 126.314 107.977 125.615 107.992 124.917C108.002 124.38 107.8 123.987 107.384 123.64C106.05 122.53 104.664 121.466 103.445 120.239C102.507 119.293 101.721 118.174 100.989 117.053C99.536 114.832 98.2102 112.525 96.749 110.31C95.6194 108.596 95.909 107.093 96.6858 106.09C97.6139 104.891 99.4506 104.426 101.058 104.961C101.892 105.239 102.551 105.752 103.114 106.417C104.334 107.855 105.565 109.287 106.862 110.802C106.874 110.529 106.888 110.353 106.888 110.177C106.89 103.6 106.887 97.0259 106.891 90.4495C106.892 88.4957 108.208 86.8853 110.02 86.5885C112.453 86.1901 114.494 87.9256 114.526 90.4488C114.549 92.2203 114.531 93.9925 114.531 95.7641C114.531 95.9502 114.531 96.1361 114.531 96.3916C115.447 96.068 116.341 95.948 117.243 96.222C118.138 96.4938 118.844 97.0342 119.389 97.845C120.307 97.2721 121.286 97.0101 122.353 97.2287C123.404 97.4453 124.218 98.0247 124.769 98.8277C125.484 98.6262 126.137 98.3271 126.809 98.2732C128.998 98.0979 130.838 99.748 130.867 101.994C130.909 105.383 130.891 108.775 130.784 112.162C130.728 113.94 130.155 115.634 129.411 117.257C128.567 119.097 127.714 120.933 126.921 122.795C126.689 123.342 126.59 123.967 126.536 124.566C126.471 125.276 126.523 125.996 126.52 126.71C126.511 128.428 125.595 129.618 123.944 130.066C123.88 130.083 123.821 130.12 123.76 130.148C119.397 130.148 115.035 130.148 110.673 130.148ZM109.06 102.054C109.06 105.58 109.06 109.107 109.059 112.635C109.059 113.042 109.065 113.453 109.049 113.86C109.032 114.316 108.785 114.631 108.372 114.795C107.956 114.961 107.568 114.873 107.233 114.576C107.132 114.485 107.048 114.377 106.959 114.273C105.121 112.123 103.295 109.964 101.432 107.836C101.123 107.483 100.681 107.179 100.24 107.021C99.5872 106.787 98.8953 106.876 98.4154 107.446C97.9226 108.031 98.2521 108.582 98.593 109.123C100.005 111.372 101.412 113.624 102.805 115.885C103.908 117.676 105.281 119.217 106.939 120.506C107.597 121.02 108.245 121.545 108.894 122.071C109.743 122.757 110.159 123.651 110.161 124.742C110.161 125.389 110.157 126.037 110.161 126.685C110.167 127.53 110.569 127.97 111.397 127.971C115.298 127.98 119.2 127.98 123.102 127.971C123.907 127.968 124.323 127.538 124.341 126.73C124.356 126.083 124.367 125.435 124.341 124.789C124.295 123.673 124.553 122.638 125.024 121.629C125.861 119.841 126.659 118.038 127.474 116.24C128.157 114.736 128.623 113.164 128.652 111.516C128.709 108.364 128.69 105.211 128.675 102.06C128.674 101.741 128.543 101.385 128.369 101.112C127.986 100.515 127.235 100.293 126.565 100.508C125.902 100.719 125.436 101.34 125.425 102.104C125.408 103.363 125.423 104.624 125.416 105.885C125.415 106.104 125.409 106.335 125.342 106.54C125.184 107.02 124.652 107.315 124.163 107.23C123.627 107.137 123.256 106.699 123.252 106.099C123.242 104.448 123.264 102.795 123.235 101.142C123.229 100.784 123.132 100.391 122.956 100.083C122.604 99.4649 121.851 99.2135 121.178 99.3954C120.496 99.5786 119.989 100.205 119.981 100.94C119.967 102.525 119.977 104.11 119.976 105.695C119.976 105.848 119.981 106.001 119.972 106.153C119.933 106.778 119.484 107.231 118.902 107.243C118.297 107.253 117.815 106.795 117.81 106.138C117.794 104.178 117.804 102.22 117.799 100.26C117.798 100.023 117.79 99.7816 117.744 99.5486C117.598 98.816 116.971 98.2848 116.238 98.25C115.511 98.2153 114.807 98.6938 114.605 99.3939C114.536 99.634 114.533 99.8993 114.533 100.152C114.527 102.061 114.532 103.969 114.528 105.878C114.527 106.737 114.104 107.248 113.419 107.241C112.736 107.233 112.338 106.727 112.332 105.855C112.331 105.719 112.332 105.583 112.332 105.446C112.332 100.557 112.332 95.6663 112.331 90.7764C112.331 90.5727 112.336 90.3668 112.318 90.1638C112.248 89.3899 111.612 88.7727 110.841 88.7224C109.791 88.6528 109.063 89.3919 109.061 90.5522C109.057 94.3859 109.06 98.2199 109.06 102.054Z" fill="#CA282C"/>
<path fill-rule="evenodd" clip-rule="evenodd" d="M111.797 77.7983C112.725 78.0028 113.675 78.1355 114.575 78.4238C120.528 80.3301 124.161 86.4071 123.044 92.5384C123.011 92.7222 122.977 92.9083 122.923 93.0864C122.748 93.66 122.24 93.9667 121.659 93.8601C121.104 93.7593 120.733 93.2531 120.803 92.6561C120.856 92.2003 120.972 91.7507 121.008 91.2949C121.447 85.698 117.754 81.0005 112.207 80.0846C106.63 79.1636 101.063 83.3912 100.436 89.0059C100.074 92.245 100.982 95.0582 103.187 97.4551C103.721 98.0358 103.755 98.6713 103.28 99.1271C102.789 99.5985 102.136 99.5389 101.582 98.9256C98.3603 95.362 97.3472 91.2176 98.7508 86.652C100.15 82.1014 103.335 79.28 107.957 78.1091C108.48 77.9764 109.017 77.9005 109.548 77.7981C110.298 77.7983 111.048 77.7983 111.797 77.7983Z" fill="#CA282C"/>
<path fill-rule="evenodd" clip-rule="evenodd" d="M118.868 89.9999C118.893 90.8337 118.603 91.3008 117.996 91.401C117.26 91.5225 116.736 91.0346 116.703 90.2011C116.637 88.5211 116.022 87.0706 114.769 85.9501C112.912 84.2923 110.757 83.8557 108.456 84.8034C106.167 85.7469 104.914 87.5405 104.73 90.0326C104.666 90.8819 104.385 91.3227 103.787 91.4044C103.031 91.5074 102.486 90.9706 102.529 90.1179C102.668 87.2892 103.883 85.0263 106.266 83.4947C108.897 81.8041 111.684 81.6919 114.475 83.0951C117.105 84.4172 118.784 87.1251 118.868 89.9999Z" fill="#CA282C"/>
<path d="M114 188C154.869 188 188 154.869 188 114C188 73.1309 154.869 40 114 40C73.1309 40 40 73.1309 40 114C40 154.869 73.1309 188 114 188Z" fill="#E1E0D8"/>
<path d="M145.438 160H82.562C74.52 160 68 153.48 68 145.438V82.562C68 74.52 74.52 68 82.562 68H145.438C153.48 68 160 74.52 160 82.562V145.438C160 153.48 153.48 160 145.438 160Z" fill="#E1E0D8"/>
<path d="M145.438 161.4H82.562C73.76 161.4 66.6 154.24 66.6 145.438V82.562C66.6 73.76 73.762 66.6 82.562 66.6H145.438C154.24 66.6 161.4 73.76 161.4 82.562V145.438C161.4 154.24 154.24 161.4 145.438 161.4ZM82.562 69.4C75.304 69.4 69.4 75.304 69.4 82.562V145.438C69.4 152.696 75.304 158.6 82.562 158.6H145.438C152.696 158.6 158.6 152.696 158.6 145.438V82.562C158.6 75.304 152.696 69.4 145.438 69.4H82.562Z" fill="#472B29"/>
<path d="M75 94.334C74.448 94.334 74 93.886 74 93.334V84.668C74 78.786 78.786 74 84.666 74H112.666C113.218 74 113.666 74.448 113.666 75C113.666 75.552 113.218 76 112.666 76H84.666C79.888 76 76 79.888 76 84.666V93.332C76 93.886 75.552 94.334 75 94.334Z" fill="#472B29"/>
<path d="M97.166 154H84.666C78.786 154 74 149.214 74 143.334V102.666C74 102.114 74.448 101.666 75 101.666C75.552 101.666 76 102.114 76 102.666V143.332C76 148.112 79.888 152 84.666 152H97.166C97.718 152 98.166 152.448 98.166 153C98.166 153.552 97.72 154 97.166 154Z" fill="#472B29"/>
<path d="M143.334 154H103.834C103.282 154 102.834 153.552 102.834 153C102.834 152.448 103.282 152 103.834 152H143.334C148.114 152 152 148.112 152 143.334V133.168C152 132.616 152.448 132.168 153 132.168C153.552 132.168 154 132.616 154 133.168V143.334C154 149.214 149.214 154 143.334 154Z" fill="#472B29"/>
<path d="M153 126.334C152.448 126.334 152 125.886 152 125.334V84.666C152 79.888 148.114 76 143.334 76H137.834C137.282 76 136.834 75.552 136.834 75C136.834 74.448 137.282 74 137.834 74H143.334C149.214 74 154 78.786 154 84.666V125.332C154 125.886 153.552 126.334 153 126.334Z" fill="#472B29"/>
<path d="M131 76H118.5C117.948 76 117.5 75.552 117.5 75C117.5 74.448 117.948 74 118.5 74H131C131.552 74 132 74.448 132 75C132 75.552 131.552 76 131 76Z" fill="#472B29"/>
<path d="M127.272 97.872L122.894 90.296C122.334 89.48 121.41 88.992 120.42 88.992H107.582C106.592 88.992 105.666 89.48 105.108 90.296L100.73 97.872C100.17 98.688 99.246 99.176 98.256 99.176H89.5C87.014 99.176 85 101.19 85 103.676V134.508C85 136.994 87.014 139.008 89.5 139.008H138.5C140.986 139.008 143 136.994 143 134.508V103.676C143 101.19 140.986 99.176 138.5 99.176H129.748C128.758 99.176 127.832 98.688 127.272 97.872Z" fill="#7C8A9F"/>
<path d="M138.5 140.008H89.5C86.466 140.008 84 137.54 84 134.508V103.676C84 100.642 86.466 98.176 89.5 98.176H98.254C98.912 98.176 99.53 97.85 99.904 97.304L104.24 89.796C105.028 88.64 106.262 87.99 107.582 87.99H120.418C121.736 87.99 122.97 88.64 123.718 89.73L128.114 97.334C128.49 97.862 129.096 98.176 129.744 98.176H138.498C141.532 98.176 143.998 100.642 143.998 103.676V134.508C144 137.542 141.534 140.008 138.5 140.008ZM89.5 100.176C87.57 100.176 86 101.746 86 103.676V134.508C86 136.438 87.57 138.008 89.5 138.008H138.5C140.43 138.008 142 136.438 142 134.508V103.676C142 101.746 140.43 100.176 138.5 100.176H129.746C128.428 100.176 127.194 99.526 126.448 98.436L126.406 98.37L122.03 90.796C121.696 90.316 121.078 89.99 120.418 89.99H107.582C106.922 89.99 106.304 90.316 105.93 90.862L101.594 98.37C100.804 99.526 99.572 100.176 98.254 100.176H89.5Z" fill="#472B29"/>
<path d="M114 132C122.284 132 129 125.284 129 117C129 108.716 122.284 102 114 102C105.716 102 99 108.716 99 117C99 125.284 105.716 132 114 132Z" fill="#EDEDEB"/>
<path d="M114 133C105.178 133 98 125.824 98 117C98 108.176 105.178 101 114 101C122.822 101 130 108.178 130 117C130 125.822 122.822 133 114 133ZM114 103C106.282 103 100 109.28 100 117C100 124.718 106.282 131 114 131C121.718 131 128 124.72 128 117C128 109.282 121.718 103 114 103Z" fill="#472B29"/>
<path d="M114 127.084C119.569 127.084 124.084 122.569 124.084 117C124.084 111.431 119.569 106.916 114 106.916C108.431 106.916 103.916 111.431 103.916 117C103.916 122.569 108.431 127.084 114 127.084Z" fill="#7C8A9F"/>
<path d="M114 128.084C107.888 128.084 102.916 123.112 102.916 117C102.916 110.888 107.888 105.916 114 105.916C120.112 105.916 125.084 110.888 125.084 117C125.084 123.112 120.112 128.084 114 128.084ZM114 107.916C108.99 107.916 104.916 111.992 104.916 117C104.916 122.008 108.99 126.084 114 126.084C119.01 126.084 123.084 122.01 123.084 117C123.084 111.99 119.01 107.916 114 107.916Z" fill="#472B29"/>
<path d="M135 110C136.657 110 138 108.657 138 107C138 105.343 136.657 104 135 104C133.343 104 132 105.343 132 107C132 108.657 133.343 110 135 110Z" fill="#FBCD59"/>
<path d="M135 110.5C133.07 110.5 131.5 108.93 131.5 107C131.5 105.07 133.07 103.5 135 103.5C136.93 103.5 138.5 105.07 138.5 107C138.5 108.93 136.93 110.5 135 110.5ZM135 104.5C133.622 104.5 132.5 105.622 132.5 107C132.5 108.378 133.622 109.5 135 109.5C136.378 109.5 137.5 108.378 137.5 107C137.5 105.622 136.378 104.5 135 104.5Z" fill="#472B29"/>
<path d="M97 94.952H88.75V92.484C88.75 91.574 89.49 90.834 90.4 90.834H95.35C96.26 90.834 97 91.574 97 92.484V94.952Z" fill="#7C8A9F"/>
<path d="M97 95.952H88.75C88.198 95.952 87.75 95.504 87.75 94.952V92.484C87.75 91.022 88.94 89.834 90.4 89.834H95.35C96.81 89.834 98 91.022 98 92.484V94.952C98 95.504 97.552 95.952 97 95.952ZM89.75 93.952H96V92.484C96 92.126 95.708 91.834 95.35 91.834H90.4C90.04 91.834 89.75 92.126 89.75 92.484V93.952Z" fill="#472B29"/>
<defs>
<filter id="filter0_i_99_272" x="0" y="0" width="229" height="229" filterUnits="userSpaceOnUse" color-interpolation-filters="sRGB">
<feFlood flood-opacity="0" result="BackgroundImageFix"/>
<feBlend mode="normal" in="SourceGraphic" in2="BackgroundImageFix" result="shape"/>
<feColorMatrix in="SourceAlpha" type="matrix" values="0 0 0 0 0 0 0 0 0 0 0 0 0 0 0 0 0 0 127 0" result="hardAlpha"/>
<feOffset dx="2" dy="2"/>
<feGaussianBlur stdDeviation="3.5"/>
<feComposite in2="hardAlpha" operator="arithmetic" k2="-1" k3="1"/>
<feColorMatrix type="matrix" values="0 0 0 0 0 0 0 0 0 0 0 0 0 0 0 0 0 0 0.06 0"/>
<feBlend mode="normal" in2="shape" result="effect1_innerShadow_99_272"/>
</filter>
<filter id="filter1_d_99_272" x="14" y="19" width="199" height="199" filterUnits="userSpaceOnUse" color-interpolation-filters="sRGB">
<feFlood flood-opacity="0" result="BackgroundImageFix"/>
<feColorMatrix in="SourceAlpha" type="matrix" values="0 0 0 0 0 0 0 0 0 0 0 0 0 0 0 0 0 0 127 0" result="hardAlpha"/>
<feOffset dx="1" dy="6"/>
<feGaussianBlur stdDeviation="5"/>
<feComposite in2="hardAlpha" operator="out"/>
<feColorMatrix type="matrix" values="0 0 0 0 0 0 0 0 0 0 0 0 0 0 0 0 0 0 0.09 0"/>
<feBlend mode="normal" in2="BackgroundImageFix" result="effect1_dropShadow_99_272"/>
<feBlend mode="normal" in="SourceGraphic" in2="effect1_dropShadow_99_272" result="shape"/>
</filter>
<linearGradient id="paint0_linear_99_272" x1="40.4028" y1="58.6343" x2="174.653" y2="181.282" gradientUnits="userSpaceOnUse">
<stop stop-color="#F1F1F1"/>
<stop offset="0.481" stop-color="#F1F1F1"/>
<stop offset="1" stop-color="#E4E7EF"/>
</linearGradient>
<linearGradient id="paint1_linear_99_272" x1="50.2639" y1="66.2546" x2="168.014" y2="173.829" gradientUnits="userSpaceOnUse">
<stop stop-color="#E4E7ED"/>
<stop offset="0.921" stop-color="white"/>
</linearGradient>
</defs>
</svg>
