<svg width="23" height="23" viewBox="0 0 23 23" fill="none" xmlns="http://www.w3.org/2000/svg">
<path d="M11.7387 22.7686C8.59497 22.7686 5.93215 21.6776 3.75028 19.4958C1.56841 17.3139 0.477478 14.6511 0.477478 11.5073C0.477478 8.36353 1.56841 5.70071 3.75028 3.51884C5.93215 1.33697 8.59497 0.246033 11.7387 0.246033C13.3575 0.246033 14.906 0.580117 16.384 1.24828C17.862 1.91645 19.1289 2.87272 20.1847 4.11709V0.246033H23V10.0996H13.1464V7.28432H19.0586C18.3078 5.97051 17.2816 4.93823 15.98 4.18747C14.6784 3.43672 13.2646 3.06135 11.7387 3.06135C9.39264 3.06135 7.39846 3.88248 5.75619 5.52475C4.11393 7.16702 3.29279 9.1612 3.29279 11.5073C3.29279 13.8534 4.11393 15.8476 5.75619 17.4898C7.39846 19.1321 9.39264 19.9532 11.7387 19.9532C13.5452 19.9532 15.1758 19.4371 16.6304 18.4048C18.0849 17.3725 19.1055 16.0118 19.692 14.3226H22.6481C21.9912 16.8095 20.6539 18.8388 18.6363 20.4107C16.6186 21.9826 14.3194 22.7686 11.7387 22.7686Z" fill="#105F82"/>
</svg>
