<svg width="15" height="18" viewBox="0 0 15 18" fill="none" xmlns="http://www.w3.org/2000/svg">
<path fill-rule="evenodd" clip-rule="evenodd" d="M13.1792 3.10558C13.5433 3.23308 13.7867 3.57641 13.7867 3.96225V9.60641C13.7867 11.1839 13.2133 12.6897 12.2008 13.8564C11.6917 14.4439 11.0475 14.9014 10.3633 15.2714L7.39833 16.8731L4.42833 15.2706C3.74333 14.9006 3.09833 14.4439 2.58833 13.8556C1.575 12.6889 1 11.1822 1 9.60308V3.96225C1 3.57641 1.24333 3.23308 1.6075 3.10558L7.0925 1.17808C7.2875 1.10975 7.5 1.10975 7.69417 1.17808L13.1792 3.10558Z" stroke="#3AD23A" stroke-linecap="round" stroke-linejoin="round"/>
<path opacity="0.4" d="M5.22708 8.76727L6.80375 10.3448L10.0521 7.09644" stroke="#3AD23A" stroke-linecap="round" stroke-linejoin="round"/>
</svg>
